<?xml version="1.0" standalone="no"?>
<!DOCTYPE svg PUBLIC "-//W3C//DTD SVG 1.1//EN" "http://www.w3.org/Graphics/SVG/1.1/DTD/svg11.dtd" >
<svg xmlns="http://www.w3.org/2000/svg">
<metadata>Generated by IcoMoon</metadata>
<defs>
<font id="ccsfont" horiz-adv-x="1024">
<font-face units-per-em="1024" ascent="960" descent="-64" />
<missing-glyph horiz-adv-x="1024" />
<glyph unicode="&#x20;" horiz-adv-x="512" d="" />
<glyph unicode="&#xe900;" glyph-name="pantallas_aplicaciones-37" d="M899.84 448c0 214.198-173.642 387.84-387.84 387.84s-387.84-173.642-387.84-387.84c0-214.198 173.642-387.84 387.84-387.84v0c214.1 0.243 387.597 173.739 387.84 387.816v0.024zM549.973 448c0-20.265-16.428-36.693-36.693-36.693s-36.693 16.428-36.693 36.693v0 192c0 20.265 16.428 36.693 36.693 36.693s36.693-16.428 36.693-36.693v0-192zM763.307 448c0.001-0.27 0.002-0.589 0.002-0.908 0-138.322-112.132-250.453-250.453-250.453s-250.453 112.132-250.453 250.453c0 69.598 28.389 132.566 74.219 177.956l0.020 0.019c5.981 4.405 13.495 7.050 21.626 7.050 20.265 0 36.693-16.428 36.693-36.693 0-8.667-3.005-16.631-8.029-22.91l0.056 0.073c-31.9-31.955-51.627-76.070-51.627-124.793 0-97.556 79.084-176.64 176.64-176.64s176.64 79.084 176.64 176.64c0 48.723-19.727 92.839-51.629 124.796l0.002-0.002c-6.661 6.661-10.781 15.863-10.781 26.027 0 20.328 16.479 36.807 36.807 36.807 10.164 0 19.366-4.12 26.027-10.781v0c45.331-45.066 73.387-107.466 73.387-176.419 0-0.078 0-0.155 0-0.233v0.012z" />
<glyph unicode="&#xe901;" d="M759.467 746.667v64c0 35.346-28.654 64-64 64s-64-28.654-64-64v0-64h-213.333v64c0 35.346-28.654 64-64 64s-64-28.654-64-64v0-64h-128v-640h722.773v640h-125.44zM674.133 810.667c0 11.782 9.551 21.333 21.333 21.333s21.333-9.551 21.333-21.333v0-128c0-11.782-9.551-21.333-21.333-21.333s-21.333 9.551-21.333 21.333v0 128zM332.8 810.667c0 11.782 9.551 21.333 21.333 21.333s21.333-9.551 21.333-21.333v0-128c0-11.782-9.551-21.333-21.333-21.333s-21.333 9.551-21.333 21.333v0 128zM332.8 149.333h-125.44v85.333h125.44v-85.333zM332.8 277.333h-125.44v85.333h125.44v-85.333zM332.8 405.333h-125.44v85.333h125.44v-85.333zM332.8 533.333h-125.44v85.333h125.44v-85.333zM500.907 149.333h-125.44v85.333h125.44v-85.333zM500.907 277.333h-125.44v85.333h125.44v-85.333zM500.907 405.333h-125.44v85.333h125.44v-85.333zM500.907 533.333h-125.44v85.333h125.44v-85.333zM674.133 149.333h-125.44v85.333h125.44v-85.333zM674.133 277.333h-125.44v85.333h125.44v-85.333zM674.133 405.333h-125.44v85.333h125.44v-85.333zM674.133 533.333h-125.44v85.333h125.44v-85.333zM842.24 149.333h-125.44v85.333h125.44v-85.333zM842.24 277.333h-125.44v85.333h125.44v-85.333zM842.24 405.333h-125.44v85.333h125.44v-85.333zM842.24 533.333h-125.44v85.333h125.44v-85.333z" />
<glyph unicode="&#xe902;" d="M503.467 533.333v-170.667h213.333v170.667h-213.333zM674.133 405.333h-128v85.333h128v-85.333z" />
<glyph unicode="&#xe903;" d="M266.667 730.453h616.107v-72.107h-616.107v72.107z" />
<glyph unicode="&#xe904;" d="M737.707 308.907v-139.52h-567.040v393.387h101.12v59.733h-101.12c-32.99 0-59.733-26.744-59.733-59.733v-393.387c0-32.99 26.744-59.733 59.733-59.733v0h567.040c32.99 0 59.733 26.744 59.733 59.733v0 139.52h-59.733z" />
<glyph unicode="&#xe905;" d="M853.333 726.613v-393.387h-567.040v393.387h567.040zM853.333 786.347h-567.040c-32.99 0-59.733-26.744-59.733-59.733v0-393.387c0-32.99 26.744-59.733 59.733-59.733h567.040c32.99 0 59.733 26.744 59.733 59.733v393.387c0 32.99-26.744 59.733-59.733 59.733v0 0z" />
<glyph unicode="&#xe906;" glyph-name="pantallas_aplicaciones-40" d="M750.080 103.253h-476.16c-58.91 0-106.667 47.756-106.667 106.667v0 476.16c0 58.91 47.756 106.667 106.667 106.667v0h476.16c58.91 0 106.667-47.756 106.667-106.667v0-476.16c0-58.91-47.756-106.667-106.667-106.667v0zM273.92 750.080c-35.346 0-64-28.654-64-64v0-476.16c0-35.346 28.654-64 64-64v0h476.16c35.346 0 64 28.654 64 64v0 476.16c0 35.346-28.654 64-64 64v0h-476.16zM688.64 571.733l-48.213 48.213-122.027-122.027-122.027 122.027-48.213-48.213 122.027-122.027-122.027-122.027 48.213-48.64 122.027 122.027 122.027-122.027 48.213 48.64-122.027 122.027 122.027 122.027z" />
<glyph unicode="&#xe907;" glyph-name="pantallas_aplicaciones-41" d="M469.333 716.8c17.349 15.599 40.038 25.567 65.021 26.869l0.259 0.011h356.267c20.972 0 37.973-17.001 37.973-37.973v0-636.16c0-20.972-17.001-37.973-37.973-37.973v0h-534.613c-20.972 0-37.973 17.001-37.973 37.973v0 457.813c1.313 25.242 11.281 47.931 26.966 65.377l-0.086-0.097zM505.6 680.96l-124.587-124.587c-3.843-4.531-6.782-9.957-8.461-15.913l-0.072-0.301h149.333v149.333c-6.416-1.691-11.994-4.64-16.707-8.588l0.067 0.054zM878.080 83.627v609.28h-305.493v-165.547c0-20.972-17.001-37.973-37.973-37.973v0h-165.547v-407.040h508.587zM322.987 203.093h-176.64v407.040h165.12c0.128-0.002 0.278-0.002 0.429-0.002 20.972 0 37.973 17.001 37.973 37.973 0 0.151-0.001 0.302-0.003 0.452v-0.023 165.12h305.493v-117.76h50.773v130.56c0 20.972-17.001 37.973-37.973 37.973v0h-356.693c-12.756-0.403-24.725-3.348-35.556-8.342l0.569 0.235c-11.747-4.628-21.811-11.129-30.332-19.236l0.039 0.036-123.733-123.307c-8.071-8.482-14.572-18.546-18.981-29.667l-0.219-0.626c-4.759-10.261-7.704-22.231-8.103-34.843l-0.004-0.143v-456.533c0-20.972 17.001-37.973 37.973-37.973h189.867v49.067zM157.867 677.547l124.587 124.587c4.531 3.843 9.957 6.782 15.913 8.461l0.301 0.072v-149.333h-149.333c1.751 6.256 4.691 11.683 8.584 16.275l-0.051-0.062z" />
<glyph unicode="&#xe908;" glyph-name="pantallas_aplicaciones-42" d="M365.653 760.747c16.232 14.632 37.393 24.079 60.717 25.585l0.297 0.015h338.347c20.030 0 36.267-16.237 36.267-36.267v0-604.16c0-20.030-16.237-36.267-36.267-36.267v0h-506.88c-20.030 0-36.267 16.237-36.267 36.267v0 434.773c0.316 12.126 3.114 23.522 7.9 33.806l-0.22-0.526c4.321 11.073 10.39 20.568 17.963 28.633l-0.043-0.047zM400.213 726.613l-118.613-118.187c-3.588-4.317-6.371-9.447-8.030-15.058l-0.077-0.302h141.653v142.080c-5.934-1.867-11.061-4.788-15.411-8.577l0.051 0.044zM753.493 157.867v580.267h-290.133v-157.44c0-20.030-16.237-36.267-36.267-36.267h-156.587v-386.56h482.987zM692.48 418.987h-364.8c-0.965-0.136-2.081-0.213-3.214-0.213-13.432 0-24.32 10.888-24.32 24.32s10.888 24.32 24.32 24.32c1.133 0 2.249-0.078 3.341-0.228l-0.127 0.014h364.8c0.965 0.136 2.081 0.213 3.214 0.213 13.432 0 24.32-10.888 24.32-24.32s-10.888-24.32-24.32-24.32c-1.133 0-2.249 0.078-3.341 0.228l0.127-0.014zM692.48 320h-364.8c-0.965-0.136-2.081-0.213-3.214-0.213-13.432 0-24.32 10.888-24.32 24.32s10.888 24.32 24.32 24.32c1.133 0 2.249-0.078 3.341-0.228l-0.127 0.014h364.8c0.965 0.136 2.081 0.213 3.214 0.213 13.432 0 24.32-10.888 24.32-24.32s-10.888-24.32-24.32-24.32c-1.133 0-2.249 0.078-3.341 0.228l0.127-0.014zM692.48 224.853h-364.8c-0.965-0.136-2.081-0.213-3.214-0.213-13.432 0-24.32 10.888-24.32 24.32s10.888 24.32 24.32 24.32c1.133 0 2.249-0.078 3.341-0.228l-0.127 0.014h364.8c0.965 0.136 2.081 0.213 3.214 0.213 13.432 0 24.32-10.888 24.32-24.32s-10.888-24.32-24.32-24.32c-1.133 0-2.249 0.078-3.341 0.228l0.127-0.014z" />
<glyph unicode="&#xe909;" glyph-name="pantallas_aplicaciones-43" d="M864.853 405.333q0 14.933-22.613 14.933h-464.64c-13.457-0.37-26.032-3.798-37.165-9.611l0.471 0.224c-12.124-5.45-22.365-13.095-30.634-22.513l-0.086-0.1-125.013-153.6c-4.104-4.588-6.876-10.446-7.665-16.917l-0.015-0.15q0-14.933 22.613-14.933h464.64c26.665 1.489 50.262 13.502 66.912 31.916l0.075 0.084 125.44 154.88c4.069 4.153 6.844 9.588 7.664 15.643l0.016 0.143zM377.6 475.307h327.68v68.267c0 23.564-19.103 42.667-42.667 42.667v0h-244.053c-23.564 0-42.667 19.103-42.667 42.667v0 23.893c0 23.564-19.103 42.667-42.667 42.667v0h-133.12c-23.564 0-42.667-19.103-42.667-42.667v0-363.947l109.227 134.4c13.418 15.731 29.917 28.407 48.613 37.176l0.88 0.371c17.903 9.131 39.043 14.489 61.434 14.507h0.006zM919.467 405.333c-0.465-19.648-7.813-37.495-19.716-51.306l0.089 0.106-128-154.88c-26.79-29.277-64.579-48.106-106.778-49.909l-0.316-0.011h-464.64c-0.325-0.004-0.709-0.006-1.094-0.006-26.028 0-49.535 10.79-66.294 28.14l-0.026 0.027c-17.377 16.784-28.166 40.292-28.166 66.32 0 0.385 0.002 0.769 0.007 1.152l-0.001-0.058v407.893c-0.004 0.325-0.006 0.709-0.006 1.094 0 26.028 10.79 49.535 28.14 66.294l0.027 0.026c16.626 16.38 39.464 26.494 64.664 26.494 0.967 0 1.93-0.015 2.889-0.044l-0.14 0.003h136.533c52.097-0.226 94.382-41.914 95.571-93.756l0.002-0.111v-13.653h232.107c52.686-0.241 95.332-42.887 95.573-95.55v-68.29h81.92c0.397 0.007 0.866 0.010 1.336 0.010 15.17 0 29.415-3.958 41.759-10.899l-0.429 0.222c12.572-6.829 22.449-17.257 28.417-29.893l0.17-0.4c4.040-8.398 6.401-18.259 6.401-28.671 0-0.12 0-0.241-0.001-0.361v0.019z" />
<glyph unicode="&#xe90a;" d="M442.453 405.333l-9.813 7.68c-2.551 1.997-5.529 3.596-8.758 4.637l-0.202 0.056v-12.373h18.773z" />
<glyph unicode="&#xe90b;" d="M485.547 265.813l335.787 357.547c5.295 5.555 12.752 9.009 21.015 9.009 6.934 0 13.301-2.433 18.292-6.491l-0.053 0.042 27.733-22.187c6.57-5.362 10.732-13.459 10.732-22.529 0-6.452-2.106-12.412-5.668-17.23l0.056 0.079-381.44-506.453c-5.336-7.279-13.856-11.952-23.467-11.952s-18.13 4.673-23.41 11.871l-0.057 0.081-174.507 253.44c-3.255 4.624-5.202 10.373-5.202 16.577 0 8.685 3.816 16.478 9.863 21.796l0.032 0.028 22.187 19.2c4.956 4.070 11.363 6.537 18.347 6.537s13.391-2.467 18.397-6.578l-0.051 0.040z" />
<glyph unicode="&#xe90c;" d="M627.2 416.427h5.973v6.827l-5.973-6.827z" />
<glyph unicode="&#xe90d;" d="M401.493 448h-34.987v-21.76c5.882-2.54 10.93-5.395 15.628-8.713l-0.268 0.18h22.613c0-6.827 2.133-12.8 3.413-19.2l71.68-56.32 5.12 5.547c-13.651 19.767-22.941 43.547-25.957 69.245l-0.070 0.728h91.733l28.587 30.293h-124.16v9.813c0 8.533 0 17.92 0 25.6h157.44l19.2 20.48v10.24h-170.667c4.312 30.405 17.487 57.152 36.79 78.186l-0.096-0.106c19.513 20.798 47.172 33.755 77.857 33.755 1.129 0 2.253-0.018 3.374-0.052l-0.164 0.004c0.379 0.004 0.827 0.006 1.275 0.006 24.705 0 47.932-6.324 68.152-17.442l-0.734 0.37 12.373 40.533c-23.342 12.369-51.028 19.63-80.41 19.63-0.381 0-0.762-0.001-1.142-0.004h0.059c-0.976 0.021-2.127 0.033-3.28 0.033-46.192 0-87.873-19.317-117.404-50.314l-0.062-0.066c-25.999-27.7-44.015-63.178-50.204-102.581l-0.142-1.099h-40.533v-30.72h36.267c0-8.533 0-17.92 0-27.733v-8.533z" />
<glyph unicode="&#xe90e;" d="M862.293 430.933c-13.454-117.606-88.937-214.834-192.471-259.047l-2.089-0.793-62.293-85.333c183.935 28.972 322.935 186.351 322.935 376.195 0 17.798-1.222 35.311-3.586 52.459l0.224-1.987z" />
<glyph unicode="&#xe90f;" d="M270.507 499.2h-42.667c17.61 161.743 153.35 286.531 318.274 286.72h0.019c98.638-0.023 186.815-44.791 245.341-115.109l0.419-0.517c13.894 11.354 31.831 18.234 51.375 18.234 5.676 0 11.217-0.58 16.565-1.685l-0.527 0.091c-70.147 99.044-184.147 163.015-313.111 163.413h-0.063c-0.429 0.002-0.937 0.003-1.445 0.003-200.363 0-364.884-153.454-382.448-349.246l-0.107-1.477h-46.933c-0.021 0-0.045 0-0.070 0-10.84 0-19.627-8.787-19.627-19.627 0-3.613 0.976-6.998 2.68-9.906l-0.050 0.093 77.653-134.4c3.44-5.976 9.791-9.935 17.067-9.935s13.626 3.959 17.016 9.84l0.051 0.095 77.653 134.4c1.505 2.711 2.391 5.946 2.391 9.387 0 10.78-8.691 19.53-19.448 19.626h-0.009z" />
<glyph unicode="&#xe910;" d="M492.373 291.84l335.787 357.547c5.295 5.555 12.752 9.009 21.015 9.009 6.934 0 13.301-2.433 18.292-6.491l-0.053 0.042 28.587-21.76c6.57-5.362 10.732-13.459 10.732-22.529 0-6.452-2.106-12.412-5.668-17.23l0.056 0.079-380.587-506.88c-5.336-7.279-13.856-11.952-23.467-11.952s-18.13 4.673-23.41 11.871l-0.057 0.081-174.933 253.44c-3.255 4.624-5.202 10.373-5.202 16.577 0 8.685 3.816 16.478 9.863 21.796l0.032 0.028 22.187 19.2c4.956 4.070 11.363 6.537 18.347 6.537s13.391-2.467 18.397-6.578l-0.051 0.040z" />
<glyph unicode="&#xe911;" d="M370.347 387.84l-9.813 7.68c-2.551 1.997-5.529 3.596-8.758 4.637l-0.202 0.056v-12.373h18.773z" />
<glyph unicode="&#xe912;" d="M356.267 454.827h31.573c0-3.413 0-7.68 0-11.52 3.072-1.502 5.586-2.922 8.015-4.466l-0.335 0.199 64.853-51.2h46.080l28.16 29.867h-94.293v11.093c0 8.533 0 17.92 0 25.6h128l29.013 31.147h-150.613c4.312 30.405 17.487 57.152 36.79 78.186l-0.096-0.106c19.513 20.798 47.172 33.755 77.857 33.755 1.129 0 2.253-0.018 3.374-0.052l-0.164 0.004c0.379 0.004 0.827 0.006 1.275 0.006 24.705 0 47.932-6.324 68.152-17.442l-0.734 0.37 12.8 38.4c-23.342 12.369-51.028 19.63-80.41 19.63-0.381 0-0.762-0.001-1.142-0.004h0.059c-1.161 0.030-2.529 0.047-3.9 0.047-46.348 0-88.142-19.499-117.626-50.742l-0.074-0.079c-25.999-27.7-44.015-63.178-50.204-102.581l-0.142-1.099h-40.96v-29.867z" />
<glyph unicode="&#xe913;" d="M384 114.773h-209.92v444.16h180.48c23.564 0 42.667 19.103 42.667 42.667v0 179.627h332.373v-155.733l55.467 59.307v110.507c0 23.564-19.103 42.667-42.667 42.667v0h-387.84c-13.959-0.305-27.115-3.416-39.033-8.788l0.633 0.255c-12.738-5.062-23.649-12.137-32.894-20.945l0.041 0.039-135.253-136.533c-8.448-9.236-15.246-20.149-19.821-32.159l-0.232-0.694c-5.117-11.285-8.228-24.441-8.531-38.289l-0.002-0.111v-500.053c0-23.564 19.103-42.667 42.667-42.667v0h261.547zM186.88 632.32l136.107 136.107c5.128 4.276 11.276 7.518 18.016 9.312l0.331 0.075v-162.987h-163.84c1.987 6.75 5.211 12.597 9.442 17.56l-0.055-0.066z" />
<glyph unicode="&#xe914;" d="M729.6 270.507v-155.733h-116.48l-42.667-55.467h170.667c23.564 0 42.667 19.103 42.667 42.667v0 242.773z" />
</font>
</defs>
</svg>
